<?xml version="1.0" standalone="no"?>
<!DOCTYPE svg PUBLIC "-//W3C//DTD SVG 20010904//EN"
 "http://www.w3.org/TR/2001/REC-SVG-20010904/DTD/svg10.dtd">
<svg version="1.0" xmlns="http://www.w3.org/2000/svg"
 width="512.000000pt" height="512.000000pt" viewBox="0 0 512.000000 512.000000"
 preserveAspectRatio="xMidYMid meet">
<metadata>
Created by potrace 1.16, written by Peter Selinger 2001-2019
</metadata>
<g transform="translate(0.000000,512.000000) scale(0.100000,-0.100000)"
fill="#FF0000" fill-opacity="0.5" stroke="none">
<path d="M968 5113 c7 -3 16 -2 19 1 4 3 -2 6 -13 5 -11 0 -14 -3 -6 -6z"/>
<path d="M1159 5106 c39 -14 49 -30 31 -51 -26 -31 14 -155 50 -155 22 0 25
12 10 40 -7 13 -5 24 10 43 24 31 25 35 3 59 -13 15 -14 23 -5 44 7 13 12 27
12 29 0 3 -33 5 -72 4 -70 0 -72 -1 -39 -13z"/>
<path d="M1490 5115 c0 -3 16 -12 36 -20 28 -11 40 -12 50 -4 25 21 15 29 -36
29 -27 0 -50 -2 -50 -5z"/>
<path d="M1662 5088 c2 -19 9 -33 16 -33 8 0 20 15 27 33 l14 32 -30 0 c-28 0
-30 -2 -27 -32z"/>
<path d="M2383 5103 c31 -35 25 -47 -23 -48 -83 -1 -183 -93 -112 -103 27 -4
29 -22 2 -22 -11 0 -20 4 -20 8 0 4 -18 8 -40 9 -25 1 -40 -2 -40 -10 0 -17
-95 -97 -115 -97 -12 0 -16 7 -13 28 3 27 2 27 -67 32 -39 3 -76 9 -82 13 -6
4 -31 0 -54 -10 -42 -16 -43 -16 -57 5 -20 30 -57 28 -78 -3 -14 -22 -24 -25
-71 -25 -30 0 -63 -4 -73 -10 -10 -5 -70 -12 -134 -14 -121 -5 -166 -19 -186
-56 -7 -13 -21 -20 -40 -20 -33 0 -119 -42 -138 -68 -9 -12 -11 -36 -6 -83 6
-64 6 -66 -26 -92 -35 -30 -51 -33 -79 -15 -16 10 -25 6 -62 -25 -36 -31 -49
-37 -83 -34 -50 3 -60 -22 -23 -61 31 -34 39 -95 18 -140 -14 -30 -14 -37 2
-81 9 -27 17 -63 17 -81 0 -18 9 -67 19 -109 23 -90 51 -254 51 -299 0 -21 6
-35 16 -39 21 -8 34 14 34 58 0 20 6 51 14 69 l13 32 27 -28 c15 -17 26 -40
26 -56 0 -23 6 -29 37 -37 53 -15 55 -15 84 20 27 34 55 32 44 -2 -12 -37 20
-19 47 26 32 53 51 57 73 15 9 -16 23 -30 33 -30 42 0 91 23 121 55 38 42 70
45 172 15 71 -22 80 -31 53 -61 -22 -24 -4 -84 37 -121 29 -27 31 -33 25 -71
-4 -23 -13 -49 -21 -58 -18 -18 -19 -45 -4 -54 6 -4 7 -19 4 -36 -8 -37 5 -37
77 -4 62 29 81 31 98 10 26 -32 96 -15 137 34 l23 26 19 -25 c19 -24 21 -24
58 -11 21 8 49 15 63 17 14 1 43 5 65 9 36 6 43 4 68 -24 15 -17 36 -31 46
-31 11 0 21 -6 23 -12 3 -8 25 -13 59 -14 61 -1 57 9 43 -108 -6 -47 -15 -70
-47 -113 -22 -29 -43 -50 -48 -47 -5 3 -25 -11 -45 -30 -32 -31 -37 -42 -40
-92 -3 -58 -14 -79 -44 -89 -25 -8 -32 -32 -14 -49 11 -12 12 -24 4 -58 -14
-62 -12 -144 3 -156 12 -11 55 -7 172 16 50 9 60 38 18 48 -15 4 -31 8 -34 10
-8 4 22 66 43 91 8 10 14 48 15 106 1 49 4 92 7 94 3 3 12 3 21 0 12 -5 15
-24 16 -89 1 -123 13 -228 28 -237 18 -12 102 -2 128 15 12 8 33 14 47 14 14
0 41 10 62 22 31 18 41 20 68 10 30 -11 131 -3 156 13 18 11 49 -15 58 -48 11
-44 32 -40 61 11 26 49 72 82 113 82 15 0 30 5 34 11 4 7 22 9 49 5 32 -5 45
-3 55 9 9 10 22 14 37 11 12 -4 55 0 95 8 40 8 93 18 118 21 25 4 65 16 88 27
25 11 51 16 60 12 27 -11 105 -13 124 -3 24 13 111 29 121 22 4 -2 -6 -29 -23
-59 -24 -44 -29 -61 -24 -92 7 -44 63 -154 81 -160 7 -2 19 13 27 32 8 20 19
36 23 36 23 0 33 -29 33 -98 l0 -75 28 6 c34 7 57 -6 49 -27 -4 -11 -19 -16
-46 -16 -22 0 -43 -5 -46 -10 -7 -11 45 -99 58 -100 5 0 11 9 14 20 4 16 14
20 44 20 32 0 48 8 83 40 24 22 46 40 50 40 13 0 93 56 138 97 26 24 51 43 56
43 29 0 83 -34 102 -65 22 -36 50 -47 50 -20 0 21 40 19 70 -5 27 -20 50 -12
50 19 0 25 -94 121 -119 121 -30 0 -36 23 -17 70 9 22 16 56 16 75 0 19 5 45
11 59 10 20 7 33 -16 81 -29 59 -33 62 -74 68 -29 4 -38 21 -19 33 7 5 40 11
73 15 42 5 64 13 76 28 24 29 39 26 39 -7 0 -17 -10 -38 -25 -52 -27 -25 -32
-45 -15 -55 16 -10 40 15 40 41 0 13 14 40 32 59 30 35 33 36 81 30 46 -7 49
-6 45 11 -3 11 -7 25 -9 33 -3 12 22 32 56 44 5 2 2 15 -8 30 -23 36 -22 89 2
104 13 8 21 26 23 50 3 33 7 38 30 41 14 2 31 9 37 16 15 18 3 46 -20 46 -15
0 -19 7 -19 33 0 17 -7 65 -15 105 -11 53 -13 78 -5 93 6 10 8 25 3 32 -4 6
-7 32 -8 56 0 39 -3 46 -24 51 -18 4 -27 18 -41 62 -10 31 -15 60 -12 63 14
14 43 3 52 -20 5 -14 16 -25 24 -25 30 0 35 33 22 136 -11 84 -11 103 1 128
17 32 8 48 -29 52 -13 1 -26 3 -30 3 -3 1 7 28 24 62 28 55 30 66 23 122 -3
34 -6 90 -5 125 1 59 0 63 -27 73 -48 18 -53 49 -8 49 19 0 26 7 31 28 3 15 7
33 10 40 6 20 -16 102 -38 147 -12 22 -43 60 -69 84 -37 32 -49 50 -49 71 0
37 11 43 81 46 31 1 63 5 71 10 7 5 31 11 53 15 22 4 -187 7 -464 8 -501 1
-503 1 -498 -19 4 -15 -2 -26 -19 -37 -14 -9 -34 -34 -45 -55 l-20 -39 22 -30
c14 -20 19 -38 15 -54 -8 -32 -36 -33 -36 -2 0 13 -7 32 -15 43 -8 10 -15 35
-15 54 -1 61 -5 63 -126 57 -60 -4 -118 -8 -129 -10 -11 -2 -37 4 -57 14 -48
25 -99 24 -131 -1 -28 -22 -62 -26 -73 -9 -4 7 -20 8 -43 5 -20 -4 -51 -7 -69
-6 -28 0 -32 -3 -27 -19 8 -25 -44 -64 -66 -50 -12 7 -11 15 9 50 24 46 22 60
-8 41 -27 -16 -40 -15 -40 4 0 9 -3 14 -7 12 -70 -36 -86 -39 -129 -27 -52 16
-64 36 -28 49 34 13 127 13 141 -1 8 -8 24 -6 59 6 47 16 109 14 143 -5 8 -4
26 -4 39 1 16 6 29 6 38 -2 8 -7 27 -9 46 -4 52 10 310 13 337 3 16 -6 35 -5
53 3 24 10 32 9 47 -5 23 -21 31 -20 66 9 l30 24 -859 1 c-818 0 -858 -1 -843
-17z m287 -5 c0 -20 -44 -98 -55 -98 -6 0 -16 9 -23 20 -7 12 -23 20 -40 20
-16 0 -37 7 -48 15 -19 15 -19 15 1 31 14 11 32 14 62 9 25 -4 44 -2 48 5 9
14 55 13 55 -2z m1535 -11 c11 -7 33 -14 49 -15 16 -1 35 -7 42 -13 11 -9 14
-7 14 9 0 24 18 32 45 21 11 -4 32 -8 46 -8 14 -1 34 -9 43 -20 16 -17 16 -20
1 -35 -20 -19 -23 -19 -54 -2 -14 8 -30 12 -37 9 -7 -2 -15 0 -18 6 -4 6 -13
8 -22 4 -11 -4 -12 -8 -3 -19 9 -11 9 -24 1 -52 -6 -20 -14 -47 -17 -59 -6
-23 -34 -38 -47 -25 -4 4 -11 42 -16 83 l-7 74 -33 3 c-36 4 -54 28 -31 43 18
12 21 11 44 -4z m635 1 c0 -6 -12 -26 -26 -45 l-25 -33 -31 21 c-27 20 -34 21
-64 10 -19 -7 -39 -9 -44 -6 -6 4 -18 1 -26 -6 -8 -7 -32 -13 -52 -14 -20 -1
-43 -3 -51 -6 -10 -3 -17 7 -22 31 -4 19 -5 38 -3 42 8 12 52 10 60 -3 4 -6
17 -8 33 -4 14 3 66 8 114 10 49 2 91 6 94 9 11 11 43 6 43 -6z m-1966 -19 c6
-5 2 -18 -11 -31 -30 -34 -45 -66 -33 -73 14 -9 12 -35 -3 -35 -7 0 -17 15
-22 33 -8 26 -16 33 -45 37 -54 8 -51 59 5 80 23 9 96 1 109 -11z m676 -124
c0 -8 0 -18 1 -22 0 -4 -4 -9 -10 -11 -13 -4 -44 44 -36 58 9 14 45 -6 45 -25z
m393 -47 c6 -18 -11 -48 -27 -48 -8 0 -19 6 -25 14 -10 11 -7 17 11 30 27 19
35 20 41 4z m445 -19 c-2 -6 -8 -10 -13 -10 -5 0 -11 4 -13 10 -2 6 4 11 13
11 9 0 15 -5 13 -11z m-818 -39 c0 -28 -18 -34 -61 -20 -55 19 -50 37 11 39
43 0 50 -2 50 -19z m395 -10 c3 -5 -1 -19 -9 -31 -8 -12 -12 -27 -9 -35 3 -10
-6 -12 -38 -11 -41 2 -44 0 -67 -40 -29 -53 -50 -56 -50 -8 0 43 44 90 93 99
18 4 38 13 45 21 14 17 26 19 35 5z m352 -37 c-2 -24 2 -28 24 -26 23 1 27 -4
38 -47 13 -49 8 -76 -10 -65 -5 4 -9 14 -9 24 0 26 -35 54 -58 46 -14 -4 -25
1 -36 17 -22 31 -20 40 12 60 38 23 41 22 39 -9z m-393 -138 c3 -8 1 -15 -4
-15 -6 0 -10 7 -10 15 0 8 2 15 4 15 2 0 6 -7 10 -15z m656 -20 c0 -8 -4 -15
-9 -15 -13 0 -22 16 -14 24 11 11 23 6 23 -9z m-1411 -29 c17 -20 -1 -28 -49
-20 -34 6 -45 3 -64 -15 -26 -24 -76 -33 -83 -14 -5 15 54 46 74 39 8 -3 24 1
36 9 27 19 71 19 86 1z m711 -26 c0 -5 -4 -10 -10 -10 -5 0 -10 5 -10 10 0 6
5 10 10 10 6 0 10 -4 10 -10z m40 -55 c0 -8 -7 -15 -15 -15 -8 0 -15 7 -15 15
0 8 7 15 15 15 8 0 15 -7 15 -15z m150 -75 c0 -11 -4 -20 -9 -20 -14 0 -23 18
-16 30 10 17 25 11 25 -10z m-150 -71 c0 -20 -21 -49 -35 -49 -18 0 -20 31 -3
48 15 15 38 16 38 1z m-1487 -134 c7 -53 6 -70 -5 -76 -10 -6 -14 3 -19 40 -4
27 -10 54 -13 60 -10 16 3 53 17 48 7 -2 16 -34 20 -72z m870 53 c7 -26 1 -38
-19 -38 -17 0 -28 24 -20 45 8 22 33 18 39 -7z m657 -41 c0 -13 -11 -38 -25
-57 -14 -19 -25 -47 -25 -62 0 -22 -16 -43 -71 -96 -79 -75 -89 -81 -89 -57 0
9 23 37 51 62 34 32 49 53 46 65 -3 10 3 29 14 42 10 13 19 28 19 32 0 4 11
27 25 51 28 47 55 57 55 20z m-503 -133 c-9 -9 -28 6 -21 18 4 6 10 6 17 -1 6
-6 8 -13 4 -17z m-1808 -18 c13 -16 4 -43 -22 -65 -12 -9 -18 -8 -31 4 -22 22
-20 41 6 59 28 20 32 20 47 2z m1858 -47 c-6 -10 -15 -19 -20 -19 -4 0 -12
-11 -17 -25 -10 -25 -24 -32 -34 -17 -9 15 54 92 69 86 11 -5 12 -10 2 -25z
m175 16 c0 -5 -5 -11 -11 -13 -6 -2 -11 4 -11 13 0 9 5 15 11 13 6 -2 11 -8
11 -13z m-1234 -63 c2 -24 -1 -32 -12 -32 -12 0 -16 10 -16 36 0 45 24 42 28
-4z m502 30 c0 -13 -12 -22 -22 -16 -10 6 -1 24 13 24 5 0 9 -4 9 -8z m600
-27 c14 -17 4 -55 -15 -55 -16 0 -31 43 -20 59 9 15 20 14 35 -4z m-1810 -34
c0 -11 -5 -23 -11 -27 -15 -9 -33 12 -26 30 9 23 37 20 37 -3z m1975 -25 l27
-14 -50 -49 c-46 -44 -50 -53 -56 -108 -9 -83 -32 -123 -78 -136 -46 -12 -50
-19 -52 -80 -2 -39 2 -50 16 -55 15 -4 18 -16 18 -63 0 -65 -12 -87 -55 -95
-31 -6 -71 11 -48 20 7 3 23 14 37 25 22 17 25 27 23 69 -2 45 -5 51 -30 59
-35 13 -46 40 -22 57 25 19 37 100 17 120 -19 19 -45 -1 -37 -27 10 -31 -3
-40 -36 -24 -16 9 -29 20 -29 26 0 5 -10 23 -21 39 -23 30 -22 78 3 107 15 18
78 44 89 37 5 -3 9 -23 9 -44 0 -44 11 -51 60 -37 37 10 52 26 60 67 4 19 12
25 32 25 34 1 78 41 78 72 0 27 8 28 45 9z m-530 -46 c0 -7 -6 -15 -12 -17 -8
-3 -13 4 -13 17 0 13 5 20 13 18 6 -3 12 -11 12 -18z m-2235 -15 c16 -19 -3
-45 -32 -45 -24 0 -34 26 -18 45 16 19 34 19 50 0z m440 -105 c-10 -19 -40
-28 -40 -12 0 13 23 32 37 32 11 0 11 -5 3 -20z m1770 6 c0 -2 -3 -11 -6 -20
-9 -23 -24 -20 -24 4 0 11 7 20 15 20 8 0 15 -2 15 -4z m-145 -136 c3 -5 1
-10 -4 -10 -6 0 -11 5 -11 10 0 6 2 10 4 10 3 0 8 -4 11 -10z m385 -300 c0 -5
-7 -10 -15 -10 -8 0 -15 5 -15 10 0 6 7 10 15 10 8 0 15 -4 15 -10z m120 -69
c0 -5 -7 -14 -15 -21 -13 -10 -15 -9 -15 9 0 12 6 21 15 21 8 0 15 -4 15 -9z
m450 2 c0 -14 -19 -38 -25 -32 -8 8 5 39 16 39 5 0 9 -3 9 -7z m-671 -29 c-15
-18 -49 -18 -49 0 0 8 10 16 23 18 30 5 40 -1 26 -18z m661 -30 c0 -17 -22
-14 -28 4 -2 7 3 12 12 12 9 0 16 -7 16 -16z m577 -231 c3 -7 -12 -16 -34 -22
-21 -6 -48 -22 -61 -35 -22 -24 -24 -24 -59 -10 -20 9 -44 13 -55 11 -29 -8
-21 19 10 32 38 15 139 37 170 36 14 0 27 -5 29 -12z m-237 -45 c0 -15 -78
-50 -91 -42 -17 10 -9 34 14 38 49 11 62 14 70 15 4 0 7 -5 7 -11z"/>
<path d="M832 5048 c-17 -17 -15 -44 4 -81 9 -18 20 -39 24 -47 23 -49 57 26
38 84 -19 55 -41 69 -66 44z"/>
<path d="M5093 5023 c-18 -6 -16 -30 2 -37 9 -3 18 1 22 10 7 18 -7 33 -24 27z"/>
<path d="M1080 5007 c0 -7 4 -17 9 -22 5 -6 11 -20 13 -32 2 -17 7 -20 18 -13
12 8 12 13 -3 44 -17 36 -37 48 -37 23z"/>
<path d="M495 5003 c-37 -6 -155 -121 -155 -152 0 -22 14 -28 25 -11 9 14 55
12 56 -2 0 -7 7 1 14 19 8 17 36 48 62 69 94 75 94 91 -2 77z"/>
<path d="M55 4940 c-3 -5 -4 -14 0 -20 8 -13 35 -1 35 16 0 16 -26 19 -35 4z"/>
<path d="M5070 4845 c0 -8 7 -15 15 -15 8 0 15 7 15 15 0 8 -7 15 -15 15 -8 0
-15 -7 -15 -15z"/>
<path d="M5111 4614 c0 -11 3 -14 6 -6 3 7 2 16 -1 19 -3 4 -6 -2 -5 -13z"/>
<path d="M1 4104 c0 -11 3 -14 6 -6 3 7 2 16 -1 19 -3 4 -6 -2 -5 -13z"/>
<path d="M51 4102 c-14 -27 8 -44 50 -40 55 5 46 23 -28 55 -6 2 -16 -4 -22
-15z"/>
<path d="M1137 3373 c-11 -10 -8 -48 4 -60 12 -12 39 -6 51 11 3 5 -1 20 -10
32 -17 24 -33 30 -45 17z"/>
<path d="M1539 3364 c-6 -8 -4 -16 6 -24 18 -15 65 -4 72 16 5 16 -65 23 -78
8z"/>
<path d="M1407 3213 c-12 -11 -8 -23 8 -23 8 0 15 7 15 15 0 16 -12 20 -23 8z"/>
<path d="M4975 3120 c-3 -5 1 -10 9 -10 9 0 16 5 16 10 0 6 -4 10 -9 10 -6 0
-13 -4 -16 -10z"/>
<path d="M1279 3068 c-11 -24 -30 -61 -43 -83 -35 -59 -41 -85 -21 -85 26 0
85 64 85 92 0 14 11 35 24 47 23 22 24 25 9 47 -21 33 -31 30 -54 -18z"/>
<path d="M1018 2953 c-18 -3 -28 -12 -33 -30 -9 -38 10 -51 38 -25 14 13 30
19 43 16 22 -6 50 19 39 36 -6 10 -34 11 -87 3z"/>
<path d="M2179 2783 c-6 -15 -21 -42 -35 -60 -28 -37 -17 -50 24 -29 31 16 56
62 50 92 -5 29 -27 27 -39 -3z"/>
<path d="M886 2643 c-11 -11 -6 -23 9 -23 8 0 15 4 15 9 0 13 -16 22 -24 14z"/>
<path d="M2032 2507 c-6 -7 -13 -24 -17 -39 -5 -21 -3 -29 10 -34 21 -8 35 11
35 48 0 31 -13 43 -28 25z"/>
<path d="M4697 2455 c-4 -8 -2 -17 3 -20 6 -4 10 3 10 14 0 25 -6 27 -13 6z"/>
<path d="M337 2444 c-3 -3 -3 -13 0 -21 3 -8 -3 -21 -16 -29 -11 -8 -21 -21
-21 -28 0 -18 53 -66 73 -66 41 0 50 83 12 124 -24 26 -36 31 -48 20z"/>
<path d="M4745 2398 c-24 -19 -27 -26 -21 -62 4 -23 8 -50 9 -61 3 -27 34 -30
93 -10 67 23 84 33 84 54 0 20 -32 53 -48 49 -5 -2 -21 9 -35 25 -31 33 -46
34 -82 5z"/>
<path d="M1942 2380 c-12 -5 -40 -24 -62 -41 -39 -32 -70 -34 -70 -5 0 8 -5
18 -10 21 -16 10 -40 -15 -40 -41 0 -13 -18 -62 -39 -109 -24 -51 -36 -87 -29
-91 5 -3 32 19 60 51 l51 57 37 -43 37 -43 27 17 c40 26 44 47 13 69 -23 17
-25 22 -16 48 6 16 30 44 54 62 63 47 55 75 -13 48z"/>
<path d="M2360 2341 c13 -26 53 -29 48 -3 -2 10 -14 18 -31 20 -26 3 -28 2
-17 -17z"/>
<path d="M1051 2309 c-6 -18 -11 -40 -11 -51 0 -27 28 -34 45 -12 7 11 17 15
22 11 4 -5 0 -15 -11 -22 -10 -8 -19 -27 -20 -43 -1 -16 -6 -35 -12 -43 -7 -8
-21 -32 -32 -54 -11 -22 -34 -50 -52 -63 -17 -13 -40 -45 -51 -70 -10 -26 -23
-55 -29 -64 -15 -26 -12 -64 5 -78 21 -17 38 -2 30 27 -3 15 0 34 9 48 8 12
12 32 9 43 -3 15 2 24 20 34 31 16 127 124 127 142 0 14 69 82 114 111 33 22
48 48 40 69 -8 20 -33 20 -58 1 -29 -22 -47 -18 -80 15 -37 38 -51 38 -65 -1z"/>
<path d="M60 2286 c0 -8 4 -17 9 -20 11 -7 33 18 24 27 -12 12 -33 7 -33 -7z"/>
<path d="M228 2257 c-23 -54 -23 -67 2 -67 15 0 20 7 20 28 0 15 7 36 15 46
20 26 19 36 -2 36 -12 0 -24 -15 -35 -43z"/>
<path d="M3191 2286 c-14 -17 -11 -48 4 -53 6 -2 20 3 30 11 16 12 18 19 9 32
-14 24 -29 27 -43 10z"/>
<path d="M2333 2254 c-3 -9 -1 -32 5 -51 6 -20 7 -43 3 -52 -12 -24 -2 -41 23
-41 13 0 36 -6 52 -14 36 -17 134 -29 134 -16 0 6 -14 40 -31 77 -49 104 -70
121 -105 86 -16 -16 -18 -16 -34 5 -21 26 -38 28 -47 6z"/>
<path d="M4910 2245 c-10 -12 -10 -19 -2 -27 17 -17 37 5 25 27 -9 15 -11 15
-23 0z"/>
<path d="M2223 2193 c-18 -7 -16 -32 2 -39 23 -9 48 15 34 32 -12 15 -16 16
-36 7z"/>
<path d="M3220 2158 c-11 -18 -20 -38 -20 -44 0 -6 -6 -17 -14 -23 -21 -17
-41 11 -27 38 15 26 14 41 -2 41 -15 0 -47 -50 -47 -73 0 -40 95 -75 119 -44
6 6 24 28 41 48 35 42 38 64 11 79 -31 16 -40 12 -61 -22z"/>
<path d="M3582 2173 c-64 -22 -94 -67 -102 -155 -6 -74 -28 -108 -70 -108 -27
0 -45 -27 -31 -44 10 -12 26 -7 104 29 51 24 115 49 142 56 28 7 54 16 59 20
15 13 -3 57 -36 87 l-31 30 22 35 c20 32 20 36 6 51 -9 9 -17 15 -18 15 -1 -1
-21 -8 -45 -16z"/>
<path d="M280 2165 c-14 -7 -38 -17 -55 -22 -23 -7 -33 -18 -48 -58 -25 -67
-32 -73 -60 -47 -21 20 -25 21 -37 7 -10 -12 -10 -18 0 -30 7 -8 18 -15 26
-15 16 0 37 -37 29 -50 -4 -6 -12 -10 -18 -9 -33 4 -37 -2 -37 -56 0 -42 -3
-55 -15 -55 -10 0 -15 10 -15 31 0 17 -4 39 -10 49 -6 11 -6 36 -1 63 8 47 1
67 -26 67 -10 0 -13 -40 -13 -185 0 -191 2 -199 39 -176 12 8 11 13 -9 29 -21
17 -23 23 -12 46 14 31 53 42 92 26 34 -14 39 -36 10 -45 -28 -9 -25 -28 8
-52 27 -20 28 -23 21 -79 -10 -83 17 -174 51 -174 12 0 34 -7 49 -15 27 -13
31 -12 73 14 26 17 52 43 62 64 16 34 16 39 0 69 -15 28 -16 52 -9 178 12 246
11 406 -4 424 -16 19 -56 19 -91 1z"/>
<path d="M3966 2164 c-9 -8 -16 -24 -16 -33 0 -10 -10 -25 -21 -33 -20 -13
-21 -16 -8 -44 13 -27 19 -29 69 -30 71 -1 170 32 170 57 0 10 -4 20 -9 23 -4
3 -11 19 -14 35 -7 35 -27 44 -68 29 -24 -8 -37 -8 -50 1 -25 15 -35 14 -53
-5z"/>
<path d="M3041 2124 c0 -11 3 -14 6 -6 3 7 2 16 -1 19 -3 4 -6 -2 -5 -13z"/>
<path d="M4948 2126 c-10 -7 -18 -21 -18 -30 0 -9 -4 -16 -8 -16 -12 0 -12
-108 -1 -137 8 -20 13 -23 47 -17 35 6 38 4 55 -30 26 -56 76 -39 77 27 0 20
-7 30 -25 37 -14 5 -25 16 -25 24 0 7 -12 21 -26 31 -16 11 -22 20 -17 28 5 7
8 30 7 52 -1 34 -4 40 -25 42 -13 2 -32 -3 -41 -11z"/>
<path d="M4724 2116 c-18 -14 -18 -15 -1 -22 22 -8 46 11 31 26 -7 7 -17 5
-30 -4z"/>
<path d="M3802 2088 c-30 -18 -33 -24 -30 -62 5 -69 36 -60 105 32 38 50 -10
70 -75 30z"/>
<path d="M1921 2056 c-12 -18 -21 -39 -21 -46 0 -14 38 -70 59 -86 8 -7 15
-29 15 -55 l1 -44 75 3 c87 4 110 18 92 56 -6 13 -8 34 -5 46 7 27 -38 76 -77
85 -15 3 -42 21 -60 40 -19 19 -39 35 -46 35 -7 0 -22 -15 -33 -34z"/>
<path d="M4591 2040 c-13 -11 -29 -20 -37 -20 -21 0 -64 -64 -64 -97 0 -30 30
-68 37 -48 2 6 11 22 21 36 9 15 29 45 44 67 15 22 32 43 38 47 14 9 13 35 -2
35 -7 -1 -24 -10 -37 -20z"/>
<path d="M1660 2024 c0 -31 23 -28 28 4 2 15 -2 22 -12 22 -11 0 -16 -9 -16
-26z"/>
<path d="M570 1931 c-14 -27 -13 -38 5 -45 16 -6 50 46 38 58 -12 12 -32 6
-43 -13z"/>
<path d="M4407 1893 c-5 -20 4 -47 30 -98 19 -38 44 -94 54 -124 32 -93 31
-92 193 -85 138 6 166 13 166 40 0 8 16 16 39 20 62 10 68 17 46 58 -22 41
-39 50 -66 36 -10 -6 -19 -8 -19 -4 0 4 -8 0 -18 -9 -10 -10 -23 -13 -30 -8
-10 6 -5 16 18 40 24 24 29 35 21 45 -15 18 -71 8 -104 -20 -48 -40 -88 -23
-47 21 16 17 18 25 9 30 -7 5 -29 -10 -57 -39 -31 -33 -48 -44 -55 -37 -8 8
-6 22 6 47 21 43 16 54 -28 54 -34 0 -45 -13 -45 -51 0 -38 -30 -19 -54 34
-12 28 -30 58 -38 65 -13 11 -16 8 -21 -15z"/>
<path d="M1650 1880 c0 -12 -14 -29 -34 -42 -19 -12 -54 -52 -77 -88 -24 -36
-51 -74 -60 -85 -9 -11 -20 -41 -23 -67 -6 -41 -4 -48 16 -62 30 -21 33 -20
46 8 8 18 20 26 44 28 30 3 33 6 30 31 -2 19 2 29 15 34 30 12 103 64 103 74
0 5 -11 14 -24 19 -13 5 -27 17 -30 27 -10 32 -4 88 11 105 8 9 12 22 8 27
-10 18 -25 12 -25 -9z"/>
<path d="M2809 1864 c-16 -20 1 -37 32 -32 30 4 31 28 2 39 -15 5 -25 3 -34
-7z"/>
<path d="M4262 1750 c-7 -11 -20 -20 -30 -20 -25 0 -64 -38 -55 -53 4 -7 15
-18 25 -25 10 -7 16 -17 13 -22 -7 -12 44 -62 56 -55 5 4 39 8 76 10 40 2 72
9 80 18 13 13 11 19 -17 50 -23 27 -40 37 -68 39 -35 3 -37 5 -40 41 -4 41
-20 48 -40 17z"/>
<path d="M4056 1734 c-20 -19 -20 -28 -3 -43 11 -8 16 -5 25 15 21 45 9 60
-22 28z"/>
<path d="M3345 1722 c-31 -22 -65 -77 -65 -104 0 -19 -10 -39 -29 -59 -25 -24
-33 -28 -54 -20 -29 11 -42 4 -25 -16 9 -11 6 -20 -11 -41 -32 -40 -74 -131
-67 -147 7 -18 88 -20 135 -4 37 13 51 35 51 81 0 44 31 93 72 114 45 23 46
23 20 43 -22 16 -22 19 -8 51 21 52 24 104 6 107 -8 2 -20 0 -25 -5z"/>
<path d="M1795 1697 c-11 -17 -14 -44 -12 -103 3 -87 9 -104 36 -104 10 0 28
-9 41 -20 27 -23 50 -25 105 -6 42 15 53 29 36 50 -7 9 -6 18 5 34 11 17 13
36 8 82 -9 79 -19 87 -89 65 -49 -16 -57 -16 -73 -3 -32 28 -41 29 -57 5z"/>
<path d="M3854 1666 c-3 -7 -4 -35 -2 -62 3 -49 3 -49 38 -49 19 -1 43 -5 54
-9 10 -5 30 -5 45 0 44 16 33 44 -37 92 -67 44 -89 51 -98 28z"/>
<path d="M4065 1660 c-3 -5 1 -10 9 -10 9 0 16 5 16 10 0 6 -4 10 -9 10 -6 0
-13 -4 -16 -10z"/>
<path d="M62 1639 c3 -22 32 -48 42 -38 3 3 7 16 8 30 3 20 -2 25 -25 27 -25
3 -28 0 -25 -19z"/>
<path d="M0 1550 c0 -63 2 -71 15 -60 20 17 20 103 0 120 -13 11 -15 3 -15
-60z"/>
<path d="M3483 1563 c-19 -7 -16 -37 5 -56 22 -20 52 -22 52 -4 0 19 -44 65
-57 60z"/>
<path d="M5045 1550 c-3 -6 -3 -20 2 -33 4 -12 8 -38 8 -57 0 -28 4 -35 20
-35 16 0 21 8 23 43 4 59 -32 115 -53 82z"/>
<path d="M406 1474 c-4 -9 -1 -23 6 -31 10 -13 14 -13 24 2 14 19 8 45 -11 45
-7 0 -16 -7 -19 -16z"/>
<path d="M1596 1444 c-4 -9 -4 -19 -2 -21 8 -8 26 8 26 23 0 19 -16 18 -24 -2z"/>
<path d="M124 1399 c-37 -17 -42 -23 -47 -61 -3 -23 -1 -50 4 -59 5 -10 9 -36
9 -59 0 -41 0 -41 30 -35 25 6 30 4 30 -13 0 -11 18 -42 41 -70 34 -43 40 -58
37 -89 l-3 -38 -56 3 c-59 4 -71 -3 -83 -48 -8 -35 -23 -56 -33 -46 -9 8 -11
43 -16 242 -3 127 -8 154 -28 154 -5 0 -9 -247 -9 -640 l0 -640 83 0 c46 0 88
5 94 11 8 8 13 8 17 0 10 -15 66 -14 66 2 1 18 57 77 75 77 21 0 35 -39 24
-67 -8 -22 -7 -23 50 -23 54 0 59 2 65 25 4 16 15 27 34 31 15 3 51 15 79 26
49 19 55 19 77 5 22 -15 26 -14 62 10 22 15 56 42 78 61 31 28 43 33 65 27 14
-4 48 -7 75 -7 45 1 56 6 70 37 3 6 13 0 22 -13 11 -15 27 -22 50 -22 36 0 44
-15 22 -39 -11 -10 -9 -16 10 -28 27 -19 28 -33 2 -56 -11 -9 -20 -26 -20 -37
0 -18 7 -20 55 -20 51 0 55 2 55 23 0 13 11 34 25 47 14 13 25 29 25 35 0 6 6
20 14 31 14 18 15 18 44 -9 16 -16 42 -30 56 -31 15 -2 35 -11 46 -21 11 -10
26 -15 34 -12 19 8 69 -32 62 -49 -4 -11 10 -14 72 -14 46 0 72 4 64 9 -19 12
-11 65 10 69 22 4 35 -42 18 -63 -10 -12 -9 -15 9 -15 11 0 21 4 21 10 0 12
53 40 76 40 12 0 15 -6 10 -25 -6 -24 -4 -25 39 -25 30 0 44 4 40 10 -4 6 2
23 12 38 10 15 18 38 18 51 0 14 11 32 27 44 22 17 30 18 43 7 18 -15 20 -37
4 -42 -6 -2 -11 -16 -11 -30 -1 -15 -9 -35 -19 -44 -11 -9 -19 -21 -19 -26 0
-4 71 -8 159 -8 l158 0 -33 36 c-19 19 -34 42 -34 49 0 17 -36 38 -53 32 -19
-7 -47 12 -47 31 -1 31 -27 65 -61 81 -38 18 -46 44 -24 81 63 108 68 140 20
140 -15 0 -25 6 -25 14 0 24 -17 28 -49 11 -19 -9 -32 -11 -36 -5 -9 15 -45
12 -45 -4 0 -7 11 -21 25 -30 21 -14 24 -20 15 -36 -9 -17 -7 -20 9 -20 11 0
23 5 26 10 12 19 35 10 35 -14 0 -18 -10 -29 -37 -43 -32 -15 -39 -25 -45 -58
-4 -22 -5 -57 -2 -79 4 -26 2 -41 -7 -47 -21 -12 -29 -1 -29 41 0 32 -7 46
-36 75 -46 46 -56 97 -24 125 12 10 20 25 17 32 -2 7 3 25 11 41 17 29 19 23
-32 110 -9 15 -6 23 19 42 l30 25 -20 57 -20 58 -105 38 c-81 29 -110 36 -126
28 -12 -5 -44 -45 -72 -88 -86 -131 -84 -130 -125 -115 -41 15 -67 7 -67 -19
0 -13 7 -19 24 -19 22 0 96 -68 96 -89 0 -18 -29 -32 -53 -26 -15 4 -37 0 -55
-9 -43 -22 -65 -20 -92 9 -18 19 -34 25 -67 25 -29 0 -46 5 -49 14 -10 26 -33
26 -63 0 -26 -22 -35 -24 -64 -16 -32 9 -87 54 -87 71 0 5 28 6 63 4 78 -7
127 14 127 52 0 32 -16 40 -30 15 -6 -12 -18 -20 -27 -18 -21 4 -24 92 -4 137
14 33 14 34 -12 53 -39 28 -36 52 6 45 17 -2 40 0 51 5 28 15 39 -3 24 -38 -7
-16 -16 -32 -21 -35 -5 -4 4 -10 19 -13 24 -6 32 -3 49 18 23 29 35 25 35 -11
0 -13 7 -38 16 -55 13 -25 14 -36 5 -51 -18 -28 -7 -32 51 -16 35 9 54 20 56
32 3 12 -3 17 -22 17 -19 0 -26 5 -26 19 0 34 22 36 51 3 38 -42 69 -58 80
-41 15 23 10 52 -16 98 -24 42 -25 47 -14 100 7 31 20 70 31 87 10 17 18 40
18 51 0 11 9 31 19 44 10 14 26 42 35 64 22 53 41 67 72 53 19 -9 32 -7 64 7
77 35 76 68 -3 79 -69 10 -143 -7 -168 -37 -11 -15 -27 -27 -35 -27 -8 0 -37
-11 -64 -25 -27 -14 -55 -25 -61 -25 -6 0 -22 11 -35 25 -32 34 -110 35 -187
0 -66 -29 -79 -46 -63 -87 7 -20 8 -31 0 -36 -6 -4 -14 -16 -18 -26 -5 -14
-10 -16 -18 -8 -8 8 -8 15 1 26 10 12 9 22 -4 50 -23 48 -41 62 -60 46 -8 -7
-15 -21 -15 -31 0 -26 -35 -25 -54 2 -12 17 -21 20 -46 15 -41 -8 -68 7 -72
41 -2 23 -8 29 -35 31 -23 2 -37 -3 -50 -17 -22 -26 -43 -27 -43 -2 0 23 -17
38 -50 43 -20 2 -26 11 -33 43 -7 35 -14 74 -16 98 -1 11 -39 8 -47 -4 -4 -6
-19 -9 -36 -5 -38 7 -51 -19 -20 -43 18 -13 21 -23 16 -53 -5 -29 -1 -47 21
-84 15 -25 23 -49 18 -53 -4 -3 -16 -18 -26 -33 -21 -33 -47 -36 -72 -8 -10
11 -22 17 -27 14 -18 -11 -37 17 -31 47 4 21 -2 41 -26 78 -30 47 -31 51 -22
107 9 55 8 60 -12 76 -26 21 -22 21 -73 -3z m436 -308 c0 -5 -7 -11 -15 -15
-9 -3 -15 0 -15 9 0 8 7 15 15 15 8 0 15 -4 15 -9z m130 -20 c0 -26 -17 -36
-35 -21 -23 19 -18 40 10 40 18 0 25 -5 25 -19z m210 5 c0 -7 -6 -19 -14 -25
-7 -6 -11 -22 -8 -36 2 -14 0 -25 -6 -25 -15 0 -24 32 -12 44 5 5 10 20 10 33
0 14 6 23 15 23 8 0 15 -6 15 -14z m-73 -109 c-3 -8 -8 -40 -12 -71 -4 -31
-14 -64 -22 -72 -16 -15 -108 -20 -117 -5 -10 15 29 40 59 38 27 -2 30 2 49
60 12 36 27 63 35 63 7 0 11 -6 8 -13z m-129 -19 c15 -15 -12 -48 -39 -48 -27
0 -33 19 -13 41 20 22 35 24 52 7z m-445 -12 c8 -20 -20 -43 -35 -28 -8 8 -8
15 2 27 16 19 26 19 33 1z m129 -22 c7 -7 -14 -67 -27 -76 -5 -4 -22 -8 -37
-8 -24 0 -28 4 -28 27 0 35 27 63 60 63 15 0 29 -3 32 -6z m428 -144 c0 -5 -4
-10 -10 -10 -5 0 -10 5 -10 10 0 6 5 10 10 10 6 0 10 -4 10 -10z m-735 -94 c0
-35 -16 -43 -39 -21 -12 13 -14 21 -5 36 16 30 44 20 44 -15z m1465 17 c0 -17
-47 -73 -62 -73 -14 0 -9 23 12 58 21 34 50 43 50 15z m-1404 -89 c-6 -15 -55
-38 -63 -30 -7 6 16 47 41 74 l21 24 3 -27 c2 -15 1 -33 -2 -41z m-51 -74 c3
-11 15 -20 24 -20 10 0 31 -16 46 -36 23 -30 26 -39 16 -60 -12 -26 -30 -31
-49 -12 -7 7 -24 12 -39 13 -24 0 -28 5 -35 45 -10 54 -3 90 17 90 7 0 17 -9
20 -20z m1691 -26 c4 -15 2 -30 -5 -37 -17 -16 -41 17 -41 55 0 26 2 28 20 18
11 -6 23 -22 26 -36z m-276 -83 c7 -23 19 -41 26 -41 7 0 21 -11 32 -25 24
-30 39 -31 67 -5 l21 20 60 -46 c32 -25 59 -49 59 -54 0 -13 -86 -80 -109 -84
-11 -3 -34 -8 -51 -11 -61 -13 -68 -11 -78 19 -7 21 -6 35 2 48 14 22 5 42
-15 34 -33 -13 -46 5 -39 51 5 32 2 49 -8 61 -23 28 -27 51 -11 67 20 20 28
14 44 -34z m-1430 -149 c0 -34 -7 -43 -26 -35 -14 5 -19 44 -7 56 16 16 33 5
33 -21z m75 -85 c13 -11 18 -28 20 -71 1 -31 -3 -60 -9 -65 -10 -8 -47 -18
-85 -24 -25 -4 -52 133 -31 158 16 19 80 20 105 2z"/>
<path d="M2845 1278 c-40 -9 -70 -19 -133 -42 -18 -7 -47 -27 -63 -45 -26 -29
-35 -33 -74 -29 -52 4 -59 -11 -22 -50 15 -16 23 -37 24 -65 2 -64 14 -108 31
-114 23 -10 40 23 47 93 11 98 48 132 185 169 85 23 112 40 108 68 -4 26 -39
31 -103 15z"/>
<path d="M4564 1082 c-20 -13 -32 -47 -27 -79 7 -47 26 -40 47 17 21 58 13 84
-20 62z"/>
<path d="M4945 1060 c-3 -6 -1 -25 6 -44 11 -29 9 -36 -11 -63 -18 -26 -20
-34 -10 -53 9 -16 9 -29 0 -50 -19 -45 25 -129 52 -102 8 8 7 19 -1 40 -8 19
-9 45 -4 77 7 41 13 50 33 55 37 8 37 46 1 103 -29 45 -53 58 -66 37z"/>
<path d="M2741 1004 c0 -11 3 -14 6 -6 3 7 2 16 -1 19 -3 4 -6 -2 -5 -13z"/>
<path d="M2472 932 c-38 -18 -42 -55 -6 -60 26 -4 74 34 74 59 0 23 -23 24
-68 1z"/>
<path d="M2993 939 c-20 -6 -33 -16 -33 -26 0 -13 7 -14 43 -9 46 8 63 19 53
35 -8 13 -19 13 -63 0z"/>
<path d="M3508 913 c-49 -5 -50 -28 -2 -36 43 -7 66 0 62 21 -4 18 -10 20 -60
15z"/>
<path d="M2894 895 c-4 -9 -4 -18 -2 -21 9 -8 39 8 35 19 -6 18 -27 20 -33 2z"/>
<path d="M2398 773 c7 -3 16 -2 19 1 4 3 -2 6 -13 5 -11 0 -14 -3 -6 -6z"/>
<path d="M2521 766 c-7 -9 -8 -17 -2 -20 14 -9 41 4 41 20 0 18 -24 18 -39 0z"/>
<path d="M1113 705 c-3 -9 -3 -18 0 -22 10 -10 37 6 37 22 0 20 -29 20 -37 0z"/>
<path d="M4045 669 c-11 -6 -28 -22 -39 -36 l-19 -25 69 4 c38 2 83 10 99 19
37 18 41 45 5 41 -46 -5 -65 -5 -80 1 -8 3 -24 1 -35 -4z"/>
<path d="M4836 665 c-3 -9 -6 -25 -6 -36 0 -11 -19 -40 -42 -64 -24 -24 -51
-54 -62 -66 -16 -18 -25 -20 -65 -15 -25 4 -64 8 -87 9 -22 1 -48 8 -56 14
-12 11 -21 8 -48 -18 -27 -26 -38 -30 -67 -26 -28 5 -40 1 -59 -18 -13 -13
-24 -29 -24 -34 0 -19 48 -24 72 -7 33 23 47 21 137 -24 62 -31 87 -49 103
-76 16 -28 26 -34 46 -32 27 3 32 -3 64 -76 10 -22 25 -33 68 -46 30 -10 77
-28 104 -40 34 -15 51 -19 59 -11 7 7 6 16 -6 29 -9 10 -17 26 -17 35 0 9 -11
33 -25 53 -14 20 -25 45 -25 54 0 31 -49 129 -70 140 -29 15 -25 37 15 82 35
38 36 41 33 111 -2 57 -6 72 -19 75 -9 2 -19 -4 -23 -13z"/>
<path d="M4120 581 c-49 -10 -80 -32 -86 -61 -3 -14 -8 -33 -11 -43 -6 -25 24
-33 47 -12 10 9 30 18 44 19 14 0 26 4 26 9 0 4 11 12 25 19 19 8 28 8 40 -2
26 -21 29 -3 6 33 -17 28 -45 52 -54 46 -1 -1 -18 -4 -37 -8z"/>
<path d="M2190 565 c0 -8 5 -15 10 -15 6 0 10 7 10 15 0 8 -4 15 -10 15 -5 0
-10 -7 -10 -15z"/>
<path d="M3676 431 c-9 -14 4 -41 21 -41 9 0 13 8 11 22 -3 23 -23 35 -32 19z"/>
<path d="M1840 368 c15 -16 23 -19 31 -11 16 16 2 33 -27 33 l-25 0 21 -22z"/>
<path d="M3880 319 c-25 -5 -56 -13 -70 -18 -14 -5 -52 -17 -85 -26 -105 -29
-119 -36 -160 -81 -38 -42 -44 -45 -110 -53 -45 -5 -78 -4 -93 2 -19 9 -27 6
-50 -16 -17 -16 -39 -27 -56 -27 -15 0 -39 -9 -53 -20 -27 -21 -43 -19 -43 6
0 18 -2 18 -50 -7 -34 -18 -45 -19 -72 -10 -21 7 -41 8 -62 2 -17 -6 -70 -15
-118 -21 -48 -6 -107 -19 -130 -30 -43 -18 -39 -19 610 -19 358 -1 652 2 652
6 0 4 -10 17 -22 30 -15 16 -23 40 -26 77 -4 49 -2 55 23 72 48 34 95 76 95
85 0 5 -8 9 -18 9 -10 0 -28 11 -40 25 -23 27 -44 29 -122 14z"/>
<path d="M937 113 c-13 -12 -7 -33 8 -33 8 0 15 9 15 20 0 20 -11 26 -23 13z"/>
</g>
</svg>
